<svg xmlns="http://www.w3.org/2000/svg" xml:lang="en" height="232.77999999999997pt" width="253.57719999999998pt" viewBox="-57.17719999999999 -230.77999999999997 253.57719999999998 232.77999999999997"><circle cx="2.975891721928068e-15" cy="-48.599999999999994" r="16.2" style="stroke:black;fill:none;stroke-width:2;" /><path d="M 0.0,-0.0 L 1.9839278146187122e-15,-32.4 L 1.9839278146187122e-15,-32.4 M 3.9678556292374245e-15,-64.8 L 3.9678556292374245e-15,-64.8 L 5.951783443856136e-15,-97.19999999999999" style="stroke:black;fill:none;stroke-width:2;stroke-linecap:round;stroke-linejoin:round;" /><path d="M 3.240000000000003,-40.5 L -3.2399999999999975,-40.5" style="stroke:black;fill:none;stroke-width:2;stroke-linecap:round;stroke-linejoin:round;" /><path d="M 3.2734808941208748e-15,-53.459999999999994 L 3.670266457044618e-15,-59.94" style="stroke:black;fill:none;stroke-width:2;stroke-linecap:round;stroke-linejoin:round;" /><path d="M 3.2400000000000038,-56.699999999999996 L -3.2399999999999967,-56.699999999999996" style="stroke:black;fill:none;stroke-width:2;stroke-linecap:round;stroke-linejoin:round;" /><path d="M 5.951783443856136e-15,-97.19999999999999 L 32.400000000000006,-97.19999999999999 L 35.1,-105.3 L 40.50000000000001,-89.1 L 45.9,-105.3 L 51.300000000000004,-89.1 L 56.7,-105.3 L 62.1,-89.1 L 64.8,-97.19999999999999 L 97.19999999999999,-97.19999999999999" style="stroke:black;fill:none;stroke-width:2;stroke-linecap:round;stroke-linejoin:round;" /><path d="M 5.951783443856136e-15,-97.19999999999999 L 8.927675165784204e-15,-145.79999999999998 L 1.1903566887712272e-14,-194.39999999999998" style="stroke:black;fill:none;stroke-width:2;stroke-linecap:round;stroke-linejoin:round;" /><path d="M 1.1903566887712272e-14,-194.39999999999998 L 32.40000000000001,-194.39999999999998 L 35.10000000000001,-202.5 L 40.500000000000014,-186.29999999999998 L 45.900000000000006,-202.5 L 51.30000000000001,-186.29999999999998 L 56.70000000000001,-202.5 L 62.10000000000001,-186.29999999999998 L 64.80000000000001,-194.39999999999998 L 97.20000000000002,-194.39999999999998" style="stroke:black;fill:none;stroke-width:2;stroke-linecap:round;stroke-linejoin:round;" /><path d="M 97.20000000000002,-194.39999999999998 L 97.19999999999999,-145.79999999999998 L 97.19999999999999,-97.19999999999999" style="stroke:black;fill:none;stroke-width:2;stroke-linecap:round;stroke-linejoin:round;" /><path d="M 97.19999999999999,-97.19999999999999 L 129.6,-97.19999999999999 L 132.29999999999998,-105.3 L 137.7,-89.1 L 143.09999999999997,-105.3 L 148.49999999999997,-89.1 L 153.9,-105.3 L 159.29999999999998,-89.1 L 162.0,-97.19999999999999 L 194.39999999999998,-97.19999999999999" style="stroke:black;fill:none;stroke-width:2;stroke-linecap:round;stroke-linejoin:round;" /><path d="M 97.19999999999999,-97.19999999999999 L 97.19999999999999,-145.79999999999998 L 97.19999999999999,-194.39999999999998" style="stroke:black;fill:none;stroke-width:2;stroke-linecap:round;stroke-linejoin:round;" /><path d="M 97.19999999999999,-194.39999999999998 L 129.6,-194.39999999999998 L 132.29999999999998,-202.5 L 137.7,-186.29999999999998 L 143.09999999999997,-202.5 L 148.49999999999997,-186.29999999999998 L 153.9,-202.5 L 159.29999999999998,-186.29999999999998 L 162.0,-194.39999999999998 L 194.39999999999998,-194.39999999999998" style="stroke:black;fill:none;stroke-width:2;stroke-linecap:round;stroke-linejoin:round;" /><path d="M 194.39999999999998,-194.39999999999998 L 194.39999999999998,-145.79999999999998 L 194.39999999999995,-97.19999999999999" style="stroke:black;fill:none;stroke-width:2;stroke-linecap:round;stroke-linejoin:round;" /><path d="M 194.39999999999998,-97.19999999999999 L 194.39999999999998,-48.599999999999994 L 194.39999999999995,-0.0" style="stroke:black;fill:none;stroke-width:2;stroke-linecap:round;stroke-linejoin:round;" /><path d="M 194.39999999999995,-0.0 L 145.79999999999995,-5.951783443856136e-15 L 97.19999999999996,-1.1903566887712272e-14" style="stroke:black;fill:none;stroke-width:2;stroke-linecap:round;stroke-linejoin:round;" /><path d="M 97.19999999999996,-1.1903566887712272e-14 L 48.599999999999966,-1.785535033156841e-14 L -2.8776980798284056e-14,-2.3807133775424544e-14" style="stroke:black;fill:none;stroke-width:2;stroke-linecap:round;stroke-linejoin:round;" /><text x="-19.439999999999994" y="-56.300000000000004" fill="black" font-size="14" font-family="sans-serif" text-anchor="end" transform="rotate(0 -19.439999999999994 -50.7)"><tspan x="-19.439999999999994" dy="11.200000000000001">Rges</tspan></text><text x="48.60000000000001" y="-121.84" fill="black" font-size="14" font-family="sans-serif" text-anchor="middle" transform="rotate(0 48.60000000000001 -110.64)"><tspan x="48.60000000000001" dy="11.200000000000001">R1</tspan></text><text x="48.600000000000016" y="-219.03999999999996" fill="black" font-size="14" font-family="sans-serif" text-anchor="middle" transform="rotate(0 48.600000000000016 -207.83999999999997)"><tspan x="48.600000000000016" dy="11.200000000000001">R2</tspan></text><text x="145.79999999999998" y="-121.84" fill="black" font-size="14" font-family="sans-serif" text-anchor="middle" transform="rotate(0 145.79999999999998 -110.64)"><tspan x="145.79999999999998" dy="11.200000000000001">R3</tspan></text><text x="145.79999999999998" y="-219.03999999999996" fill="black" font-size="14" font-family="sans-serif" text-anchor="middle" transform="rotate(0 145.79999999999998 -207.83999999999997)"><tspan x="145.79999999999998" dy="11.200000000000001">R4</tspan></text></svg>