<svg xmlns="http://www.w3.org/2000/svg" xml:lang="en" height="621.5799999999999pt" width="642.3771999999999pt" viewBox="-57.17719999999999 -619.5799999999999 642.3771999999999 621.5799999999999"><circle cx="2.975891721928068e-15" cy="-48.599999999999994" r="16.2" style="stroke:black;fill:none;stroke-width:2;" /><path d="M 0.0,-0.0 L 1.9839278146187122e-15,-32.4 L 1.9839278146187122e-15,-32.4 M 3.9678556292374245e-15,-64.8 L 3.9678556292374245e-15,-64.8 L 5.951783443856136e-15,-97.19999999999999" style="stroke:black;fill:none;stroke-width:2;stroke-linecap:round;stroke-linejoin:round;" /><path d="M 3.240000000000003,-40.5 L -3.2399999999999975,-40.5" style="stroke:black;fill:none;stroke-width:2;stroke-linecap:round;stroke-linejoin:round;" /><path d="M 3.2734808941208748e-15,-53.459999999999994 L 3.670266457044618e-15,-59.94" style="stroke:black;fill:none;stroke-width:2;stroke-linecap:round;stroke-linejoin:round;" /><path d="M 3.2400000000000038,-56.699999999999996 L -3.2399999999999967,-56.699999999999996" style="stroke:black;fill:none;stroke-width:2;stroke-linecap:round;stroke-linejoin:round;" /><path d="M 5.951783443856136e-15,-97.19999999999999 L 32.400000000000006,-97.19999999999999 L 35.1,-105.3 L 40.50000000000001,-89.1 L 45.9,-105.3 L 51.300000000000004,-89.1 L 56.7,-105.3 L 62.1,-89.1 L 64.8,-97.19999999999999 L 97.19999999999999,-97.19999999999999" style="stroke:black;fill:none;stroke-width:2;stroke-linecap:round;stroke-linejoin:round;" /><path d="M 97.19999999999999,-97.19999999999999 L 129.6,-97.19999999999999 L 132.29999999999998,-105.3 L 137.7,-89.1 L 143.09999999999997,-105.3 L 148.49999999999997,-89.1 L 153.9,-105.3 L 159.29999999999998,-89.1 L 162.0,-97.19999999999999 L 194.39999999999998,-97.19999999999999" style="stroke:black;fill:none;stroke-width:2;stroke-linecap:round;stroke-linejoin:round;" /><path d="M 194.39999999999998,-97.19999999999999 L 226.79999999999998,-97.19999999999999 L 229.49999999999997,-105.3 L 234.89999999999998,-89.1 L 240.29999999999998,-105.3 L 245.7,-89.1 L 251.1,-105.3 L 256.49999999999994,-89.1 L 259.2,-97.19999999999999 L 291.59999999999997,-97.19999999999999" style="stroke:black;fill:none;stroke-width:2;stroke-linecap:round;stroke-linejoin:round;" /><path d="M 194.39999999999998,-97.19999999999999 L 194.39999999999998,-145.79999999999998 L 194.39999999999998,-194.39999999999998" style="stroke:black;fill:none;stroke-width:2;stroke-linecap:round;stroke-linejoin:round;" /><path d="M 194.39999999999998,-194.39999999999998 L 226.79999999999998,-194.39999999999998 L 229.49999999999997,-202.5 L 234.89999999999998,-186.29999999999998 L 240.29999999999998,-202.5 L 245.7,-186.29999999999998 L 251.1,-202.5 L 256.49999999999994,-186.29999999999998 L 259.2,-194.39999999999998 L 291.59999999999997,-194.39999999999998" style="stroke:black;fill:none;stroke-width:2;stroke-linecap:round;stroke-linejoin:round;" /><path d="M 291.59999999999997,-194.39999999999998 L 291.59999999999997,-145.79999999999998 L 291.59999999999997,-97.19999999999999" style="stroke:black;fill:none;stroke-width:2;stroke-linecap:round;stroke-linejoin:round;" /><path d="M 5.951783443856136e-15,-97.19999999999999 L 8.927675165784204e-15,-145.79999999999998 L 1.1903566887712272e-14,-194.39999999999998" style="stroke:black;fill:none;stroke-width:2;stroke-linecap:round;stroke-linejoin:round;" /><path d="M 1.1903566887712272e-14,-194.39999999999998 L 1.487945860964034e-14,-243.0 L 1.785535033156841e-14,-291.59999999999997" style="stroke:black;fill:none;stroke-width:2;stroke-linecap:round;stroke-linejoin:round;" /><path d="M 1.785535033156841e-14,-291.59999999999997 L 32.40000000000001,-291.59999999999997 L 35.10000000000001,-299.7 L 40.500000000000014,-283.5 L 45.900000000000006,-299.7 L 51.30000000000001,-283.5 L 56.70000000000001,-299.7 L 62.10000000000001,-283.5 L 64.80000000000001,-291.59999999999997 L 97.20000000000002,-291.59999999999997" style="stroke:black;fill:none;stroke-width:2;stroke-linecap:round;stroke-linejoin:round;" /><path d="M 1.785535033156841e-14,-291.59999999999997 L 2.0831242053496478e-14,-340.2 L 2.3807133775424544e-14,-388.79999999999995" style="stroke:black;fill:none;stroke-width:2;stroke-linecap:round;stroke-linejoin:round;" /><path d="M 2.3807133775424544e-14,-388.79999999999995 L 32.40000000000002,-388.79999999999995 L 35.100000000000016,-396.9 L 40.50000000000002,-380.7 L 45.90000000000001,-396.9 L 51.30000000000002,-380.7 L 56.70000000000002,-396.9 L 62.100000000000016,-380.7 L 64.80000000000003,-388.79999999999995 L 97.20000000000003,-388.79999999999995" style="stroke:black;fill:none;stroke-width:2;stroke-linecap:round;stroke-linejoin:round;" /><path d="M 2.3807133775424544e-14,-388.79999999999995 L 2.678302549735261e-14,-437.4 L 2.975891721928068e-14,-486.0" style="stroke:black;fill:none;stroke-width:2;stroke-linecap:round;stroke-linejoin:round;" /><path d="M 2.975891721928068e-14,-486.0 L 32.40000000000003,-486.0 L 35.10000000000002,-494.09999999999997 L 40.50000000000003,-477.9 L 45.90000000000002,-494.09999999999997 L 51.300000000000026,-477.9 L 56.700000000000024,-494.09999999999997 L 62.10000000000002,-477.9 L 64.80000000000003,-486.0 L 97.20000000000003,-486.0" style="stroke:black;fill:none;stroke-width:2;stroke-linecap:round;stroke-linejoin:round;" /><path d="M 2.975891721928068e-14,-486.0 L 3.273480894120875e-14,-534.6 L 3.571070066313681e-14,-583.1999999999999" style="stroke:black;fill:none;stroke-width:2;stroke-linecap:round;stroke-linejoin:round;" /><path d="M 3.571070066313681e-14,-583.1999999999999 L 32.400000000000034,-583.1999999999999 L 35.10000000000003,-591.3 L 40.500000000000036,-575.1 L 45.90000000000003,-591.3 L 51.30000000000003,-575.1 L 56.70000000000003,-591.3 L 62.10000000000003,-575.1 L 64.80000000000003,-583.1999999999999 L 97.20000000000003,-583.1999999999999" style="stroke:black;fill:none;stroke-width:2;stroke-linecap:round;stroke-linejoin:round;" /><path d="M 97.20000000000003,-583.1999999999999 L 97.20000000000002,-534.6 L 97.20000000000002,-486.0" style="stroke:black;fill:none;stroke-width:2;stroke-linecap:round;stroke-linejoin:round;" /><path d="M 97.20000000000003,-486.0 L 129.60000000000002,-486.0 L 132.3,-494.09999999999997 L 137.70000000000002,-477.9 L 143.10000000000002,-494.09999999999997 L 148.5,-477.9 L 153.90000000000003,-494.09999999999997 L 159.30000000000004,-477.9 L 162.00000000000003,-486.0 L 194.40000000000003,-486.0" style="stroke:black;fill:none;stroke-width:2;stroke-linecap:round;stroke-linejoin:round;" /><path d="M 97.20000000000002,-291.59999999999997 L 145.79999999999998,-291.59999999999997 L 194.39999999999998,-291.59999999999997" style="stroke:black;fill:none;stroke-width:2;stroke-linecap:round;stroke-linejoin:round;" /><path d="M 194.39999999999998,-291.59999999999997 L 243.0,-291.59999999999997 L 291.59999999999997,-291.59999999999997" style="stroke:black;fill:none;stroke-width:2;stroke-linecap:round;stroke-linejoin:round;" /><path d="M 291.59999999999997,-291.59999999999997 L 291.59999999999997,-243.0 L 291.59999999999997,-194.39999999999998" style="stroke:black;fill:none;stroke-width:2;stroke-linecap:round;stroke-linejoin:round;" /><path d="M 97.20000000000003,-388.79999999999995 L 145.8,-388.79999999999995 L 194.40000000000003,-388.79999999999995" style="stroke:black;fill:none;stroke-width:2;stroke-linecap:round;stroke-linejoin:round;" /><path d="M 194.40000000000003,-388.79999999999995 L 243.00000000000003,-388.79999999999995 L 291.59999999999997,-388.79999999999995" style="stroke:black;fill:none;stroke-width:2;stroke-linecap:round;stroke-linejoin:round;" /><path d="M 291.59999999999997,-388.79999999999995 L 291.59999999999997,-340.2 L 291.59999999999997,-291.59999999999997" style="stroke:black;fill:none;stroke-width:2;stroke-linecap:round;stroke-linejoin:round;" /><path d="M 194.40000000000003,-486.0 L 243.00000000000003,-486.0 L 291.59999999999997,-486.0" style="stroke:black;fill:none;stroke-width:2;stroke-linecap:round;stroke-linejoin:round;" /><path d="M 291.59999999999997,-486.0 L 291.59999999999997,-437.4 L 291.59999999999997,-388.79999999999995" style="stroke:black;fill:none;stroke-width:2;stroke-linecap:round;stroke-linejoin:round;" /><path d="M 291.59999999999997,-97.19999999999999 L 324.0,-97.19999999999999 L 326.7,-105.3 L 332.09999999999997,-89.1 L 337.49999999999994,-105.3 L 342.9,-89.1 L 348.3,-105.3 L 353.7,-89.1 L 356.4,-97.19999999999999 L 388.79999999999995,-97.19999999999999" style="stroke:black;fill:none;stroke-width:2;stroke-linecap:round;stroke-linejoin:round;" /><path d="M 388.79999999999995,-97.19999999999999 L 421.2,-97.19999999999999 L 423.9,-105.3 L 429.29999999999995,-89.1 L 434.7,-105.3 L 440.1,-89.1 L 445.5,-105.3 L 450.9,-89.1 L 453.59999999999997,-97.19999999999999 L 486.0,-97.19999999999999" style="stroke:black;fill:none;stroke-width:2;stroke-linecap:round;stroke-linejoin:round;" /><path d="M 388.79999999999995,-97.19999999999999 L 388.79999999999995,-145.79999999999998 L 388.79999999999995,-194.39999999999998" style="stroke:black;fill:none;stroke-width:2;stroke-linecap:round;stroke-linejoin:round;" /><path d="M 388.79999999999995,-194.39999999999998 L 421.2,-194.39999999999998 L 423.9,-202.5 L 429.29999999999995,-186.29999999999998 L 434.7,-202.5 L 440.1,-186.29999999999998 L 445.5,-202.5 L 450.9,-186.29999999999998 L 453.59999999999997,-194.39999999999998 L 486.0,-194.39999999999998" style="stroke:black;fill:none;stroke-width:2;stroke-linecap:round;stroke-linejoin:round;" /><path d="M 486.0,-194.39999999999998 L 518.4,-194.39999999999998 L 521.0999999999999,-202.5 L 526.5,-186.29999999999998 L 531.9,-202.5 L 537.3,-186.29999999999998 L 542.6999999999999,-202.5 L 548.1,-186.29999999999998 L 550.8,-194.39999999999998 L 583.1999999999999,-194.39999999999998" style="stroke:black;fill:none;stroke-width:2;stroke-linecap:round;stroke-linejoin:round;" /><path d="M 486.0,-194.39999999999998 L 486.0,-243.0 L 486.0,-291.59999999999997" style="stroke:black;fill:none;stroke-width:2;stroke-linecap:round;stroke-linejoin:round;" /><path d="M 486.0,-291.59999999999997 L 518.4,-291.59999999999997 L 521.0999999999999,-299.7 L 526.5,-283.5 L 531.9,-299.7 L 537.3,-283.5 L 542.6999999999999,-299.7 L 548.1,-283.5 L 550.8,-291.59999999999997 L 583.1999999999999,-291.59999999999997" style="stroke:black;fill:none;stroke-width:2;stroke-linecap:round;stroke-linejoin:round;" /><path d="M 583.1999999999999,-291.59999999999997 L 583.1999999999999,-243.0 L 583.1999999999999,-194.39999999999998" style="stroke:black;fill:none;stroke-width:2;stroke-linecap:round;stroke-linejoin:round;" /><path d="M 388.79999999999995,-194.39999999999998 L 388.79999999999995,-243.0 L 388.79999999999995,-291.59999999999997" style="stroke:black;fill:none;stroke-width:2;stroke-linecap:round;stroke-linejoin:round;" /><path d="M 388.79999999999995,-291.59999999999997 L 388.79999999999995,-340.2 L 388.79999999999995,-388.79999999999995" style="stroke:black;fill:none;stroke-width:2;stroke-linecap:round;stroke-linejoin:round;" /><path d="M 388.79999999999995,-388.79999999999995 L 421.2,-388.79999999999995 L 423.9,-396.9 L 429.29999999999995,-380.7 L 434.7,-396.9 L 440.1,-380.7 L 445.5,-396.9 L 450.9,-380.7 L 453.59999999999997,-388.79999999999995 L 486.0,-388.79999999999995" style="stroke:black;fill:none;stroke-width:2;stroke-linecap:round;stroke-linejoin:round;" /><path d="M 486.0,-97.19999999999999 L 534.6,-97.19999999999999 L 583.1999999999999,-97.19999999999999" style="stroke:black;fill:none;stroke-width:2;stroke-linecap:round;stroke-linejoin:round;" /><path d="M 583.1999999999999,-194.39999999999998 L 583.1999999999999,-145.79999999999998 L 583.1999999999999,-97.19999999999999" style="stroke:black;fill:none;stroke-width:2;stroke-linecap:round;stroke-linejoin:round;" /><path d="M 583.1999999999999,-97.19999999999999 L 583.1999999999999,-48.599999999999994 L 583.1999999999999,-0.0" style="stroke:black;fill:none;stroke-width:2;stroke-linecap:round;stroke-linejoin:round;" /><path d="M 486.0,-388.79999999999995 L 534.6,-388.79999999999995 L 583.1999999999999,-388.79999999999995" style="stroke:black;fill:none;stroke-width:2;stroke-linecap:round;stroke-linejoin:round;" /><path d="M 583.1999999999999,-388.79999999999995 L 583.1999999999999,-340.2 L 583.1999999999999,-291.59999999999997" style="stroke:black;fill:none;stroke-width:2;stroke-linecap:round;stroke-linejoin:round;" /><path d="M 583.1999999999999,-97.19999999999999 L 583.1999999999999,-48.599999999999994 L 583.1999999999999,-0.0" style="stroke:black;fill:none;stroke-width:2;stroke-linecap:round;stroke-linejoin:round;" /><path d="M 583.1999999999999,-0.0 L 534.6,-5.951783443856136e-15 L 486.0,-1.1903566887712272e-14" style="stroke:black;fill:none;stroke-width:2;stroke-linecap:round;stroke-linejoin:round;" /><path d="M 486.0,-1.1903566887712272e-14 L 437.4,-1.785535033156841e-14 L 388.79999999999995,-2.3807133775424544e-14" style="stroke:black;fill:none;stroke-width:2;stroke-linecap:round;stroke-linejoin:round;" /><path d="M 388.79999999999995,-2.3807133775424544e-14 L 340.2,-2.975891721928068e-14 L 291.59999999999997,-3.571070066313682e-14" style="stroke:black;fill:none;stroke-width:2;stroke-linecap:round;stroke-linejoin:round;" /><path d="M 291.59999999999997,-3.571070066313682e-14 L 243.0,-4.1662484106992955e-14 L 194.39999999999998,-4.761426755084909e-14" style="stroke:black;fill:none;stroke-width:2;stroke-linecap:round;stroke-linejoin:round;" /><path d="M 194.39999999999998,-4.761426755084909e-14 L 145.79999999999998,-5.356605099470522e-14 L 97.19999999999999,-5.951783443856136e-14" style="stroke:black;fill:none;stroke-width:2;stroke-linecap:round;stroke-linejoin:round;" /><path d="M 97.19999999999999,-5.951783443856136e-14 L 48.599999999999994,-6.54696178824175e-14 L 0.0,-7.142140132627362e-14" style="stroke:black;fill:none;stroke-width:2;stroke-linecap:round;stroke-linejoin:round;" /><text x="-19.439999999999994" y="-56.300000000000004" fill="black" font-size="14" font-family="sans-serif" text-anchor="end" transform="rotate(0 -19.439999999999994 -50.7)"><tspan x="-19.439999999999994" dy="11.200000000000001">Rges</tspan></text><text x="48.60000000000001" y="-121.84" fill="black" font-size="14" font-family="sans-serif" text-anchor="middle" transform="rotate(0 48.60000000000001 -110.64)"><tspan x="48.60000000000001" dy="11.200000000000001">R1</tspan></text><text x="145.79999999999998" y="-121.84" fill="black" font-size="14" font-family="sans-serif" text-anchor="middle" transform="rotate(0 145.79999999999998 -110.64)"><tspan x="145.79999999999998" dy="11.200000000000001">R2</tspan></text><text x="243.0" y="-121.84" fill="black" font-size="14" font-family="sans-serif" text-anchor="middle" transform="rotate(0 243.0 -110.64)"><tspan x="243.0" dy="11.200000000000001">R3</tspan></text><text x="243.0" y="-219.03999999999996" fill="black" font-size="14" font-family="sans-serif" text-anchor="middle" transform="rotate(0 243.0 -207.83999999999997)"><tspan x="243.0" dy="11.200000000000001">R4</tspan></text><text x="48.600000000000016" y="-316.23999999999995" fill="black" font-size="14" font-family="sans-serif" text-anchor="middle" transform="rotate(0 48.600000000000016 -305.03999999999996)"><tspan x="48.600000000000016" dy="11.200000000000001">R5</tspan></text><text x="48.60000000000002" y="-413.43999999999994" fill="black" font-size="14" font-family="sans-serif" text-anchor="middle" transform="rotate(0 48.60000000000002 -402.23999999999995)"><tspan x="48.60000000000002" dy="11.200000000000001">R6</tspan></text><text x="48.60000000000003" y="-510.63999999999993" fill="black" font-size="14" font-family="sans-serif" text-anchor="middle" transform="rotate(0 48.60000000000003 -499.43999999999994)"><tspan x="48.60000000000003" dy="11.200000000000001">R7</tspan></text><text x="48.60000000000004" y="-607.84" fill="black" font-size="14" font-family="sans-serif" text-anchor="middle" transform="rotate(0 48.60000000000004 -596.64)"><tspan x="48.60000000000004" dy="11.200000000000001">R8</tspan></text><text x="145.8" y="-510.63999999999993" fill="black" font-size="14" font-family="sans-serif" text-anchor="middle" transform="rotate(0 145.8 -499.43999999999994)"><tspan x="145.8" dy="11.200000000000001">R9</tspan></text><text x="340.2" y="-121.84" fill="black" font-size="14" font-family="sans-serif" text-anchor="middle" transform="rotate(0 340.2 -110.64)"><tspan x="340.2" dy="11.200000000000001">RA</tspan></text><text x="437.4" y="-121.84" fill="black" font-size="14" font-family="sans-serif" text-anchor="middle" transform="rotate(0 437.4 -110.64)"><tspan x="437.4" dy="11.200000000000001">RB</tspan></text><text x="437.4" y="-219.03999999999996" fill="black" font-size="14" font-family="sans-serif" text-anchor="middle" transform="rotate(0 437.4 -207.83999999999997)"><tspan x="437.4" dy="11.200000000000001">RC</tspan></text><text x="534.6" y="-219.03999999999996" fill="black" font-size="14" font-family="sans-serif" text-anchor="middle" transform="rotate(0 534.6 -207.83999999999997)"><tspan x="534.6" dy="11.200000000000001">RD</tspan></text><text x="534.6" y="-316.23999999999995" fill="black" font-size="14" font-family="sans-serif" text-anchor="middle" transform="rotate(0 534.6 -305.03999999999996)"><tspan x="534.6" dy="11.200000000000001">RE</tspan></text><text x="437.4" y="-413.43999999999994" fill="black" font-size="14" font-family="sans-serif" text-anchor="middle" transform="rotate(0 437.4 -402.23999999999995)"><tspan x="437.4" dy="11.200000000000001">RF</tspan></text></svg>